<svg width="24" height="24" viewBox="0 0 24 24" fill="none" xmlns="http://www.w3.org/2000/svg">
<path fill-rule="evenodd" clip-rule="evenodd" d="M7.93042 5.0097C7.9303 4.73864 8.03133 4.47729 8.21372 4.27677C8.39612 4.07626 8.64676 3.95101 8.91663 3.92553L18.7134 3.00464C18.8643 2.99039 19.0166 3.00782 19.1604 3.05583C19.3042 3.10384 19.4364 3.18136 19.5485 3.28343C19.6606 3.3855 19.7502 3.50986 19.8114 3.64855C19.8727 3.78724 19.9043 3.9372 19.9042 4.08881V6.46289C19.9042 6.73291 19.8038 6.99328 19.6226 7.19344C19.4413 7.39359 19.1921 7.51924 18.9235 7.54597L9.12671 8.51802C8.97543 8.53308 8.82267 8.51627 8.67828 8.46869C8.53389 8.42111 8.40107 8.34382 8.28837 8.24178C8.17567 8.13975 8.08559 8.01524 8.02394 7.87627C7.96229 7.73731 7.93043 7.58697 7.93042 7.43494V5.0097Z" fill="#4acae0"/>
<path d="M16.6392 19.9118C18.4428 19.9118 19.9048 18.6934 19.9048 17.1904C19.9048 15.6875 18.4428 14.4691 16.6392 14.4691C14.8357 14.4691 13.3737 15.6875 13.3737 17.1904C13.3737 18.6934 14.8357 19.9118 16.6392 19.9118Z" fill="#4acae0"/>
<path d="M6.84212 21C8.64565 21 10.1077 19.7817 10.1077 18.2787C10.1077 16.7758 8.64565 15.5574 6.84212 15.5574C5.03859 15.5574 3.57654 16.7758 3.57654 18.2787C3.57654 19.7817 5.03859 21 6.84212 21Z" fill="#4acae0"/>
<path fill-rule="evenodd" clip-rule="evenodd" d="M17.7272 6.30518H19.9042V17.1904H17.7272V6.30518ZM7.93042 7.3937H10.1075V18.279H7.93042V7.3937Z" fill="#4acae0"/>
</svg>
