<svg width="20" height="20" viewBox="0 0 20 20" fill="none" xmlns="http://www.w3.org/2000/svg">
<g id="Video cut">
<path id="Subtract" fill-rule="evenodd" clip-rule="evenodd" d="M4.08333 4C2.93274 4 2 4.93274 2 6.08333V13.9167C2 15.0673 2.93274 16 4.08333 16H15.9167C17.0673 16 18 15.0673 18 13.9167V6.08333C18 4.93274 17.0673 4 15.9167 4H4.08333ZM5.5 8C5.5 7.44772 5.94772 7 6.5 7H11C11.5523 7 12 7.44772 12 8V12C12 12.5523 11.5523 13 11 13H6.5C5.94772 13 5.5 12.5523 5.5 12V8ZM12.5 8.75C12.5 8.59262 12.5741 8.44443 12.7 8.35L13.7 7.6C14.0296 7.35279 14.5 7.58798 14.5 8V12C14.5 12.412 14.0296 12.6472 13.7 12.4L12.7 11.65C12.5741 11.5556 12.5 11.4074 12.5 11.25V8.75Z" fill="#6D6D6D"/>
</g>
</svg>
