<svg width="24" height="24" viewBox="0 0 24 24" fill="none" xmlns="http://www.w3.org/2000/svg">
<path fill-rule="evenodd" clip-rule="evenodd" d="M22 7.5V16.5C22 17.8807 20.8807 19 19.5 19H4.5C3.11929 19 2 17.8807 2 16.5V7.5C2 6.11929 3.11929 5 4.5 5H19.5C20.8807 5 22 6.11929 22 7.5ZM7 9C6.44772 9 6 9.44772 6 10C6 10.5523 6.44772 11 7 11H17C17.5523 11 18 10.5523 18 10C18 9.44772 17.5523 9 17 9H7ZM7 13C6.44772 13 6 13.4477 6 14C6 14.5523 6.44772 15 7 15H13.5C14.0523 15 14.5 14.5523 14.5 14C14.5 13.4477 14.0523 13 13.5 13H7ZM16.5 13C15.9477 13 15.5 13.4477 15.5 14C15.5 14.5523 15.9477 15 16.5 15H17C17.5523 15 18 14.5523 18 14C18 13.4477 17.5523 13 17 13H16.5Z" fill="#959595"/>
</svg>
