<svg width="24" height="24" viewBox="0 0 24 24" fill="none" xmlns="http://www.w3.org/2000/svg">
  <path fill-rule="evenodd" clip-rule="evenodd" d="M2.5 7C2.5 5.61929 3.61929 4.5 5 4.5H19C20.3807 4.5 21.5 5.61929 21.5 7V17C21.5 18.3807 20.3807 19.5 19 19.5H5C3.61929 19.5 2.5 18.3807 2.5 17V7ZM8 12C8 11.4477 8.44772 11 9 11H11V9C11 8.44772 11.4477 8 12 8C12.5523 8 13 8.44772 13 9V11H15C15.5523 11 16 11.4477 16 12C16 12.5523 15.5523 13 15 13H13V15C13 15.5523 12.5523 16 12 16C11.4477 16 11 15.5523 11 15V13H9C8.44772 13 8 12.5523 8 12Z" fill="#24b7d0"/>
</svg>