<svg xmlns="http://www.w3.org/2000/svg" width="44" height="44" viewBox="0 0 44 44" fill="none">
  <rect x="9.90002" y="6.96667" width="24.2" height="30.0667" rx="2.93333" fill="#D2F2F7"/>
  <path fill-rule="evenodd" clip-rule="evenodd" d="M16.5 19.5555V24.4444C16.5 25.2548 16.8219 26.032 17.3949 26.605C17.968 27.178 18.7452 27.4999 19.5555 27.4999H24.4444C25.2548 27.4999 26.032 27.178 26.605 26.605C27.178 26.032 27.4999 25.2548 27.4999 24.4444V19.5555C27.4999 18.7452 27.178 17.968 26.605 17.3949C26.032 16.8219 25.2548 16.5 24.4444 16.5H19.5555C18.7452 16.5 17.968 16.8219 17.3949 17.3949C16.8219 17.968 16.5 18.7452 16.5 19.5555ZM25.7205 18.2508C25.9346 18.4454 25.9503 18.7767 25.7558 18.9907L25.7488 18.9984C25.5542 19.2125 25.2229 19.2282 25.0088 19.0336C24.7948 18.839 24.779 18.5077 24.9736 18.2937L24.9806 18.286C25.1752 18.072 25.5065 18.0562 25.7205 18.2508ZM21.9999 24.4446C22.6482 24.4446 23.27 24.1871 23.7284 23.7287C24.1868 23.2702 24.4443 22.6485 24.4443 22.0002C24.4443 21.3519 24.1868 20.7301 23.7284 20.2717C23.27 19.8133 22.6482 19.5557 21.9999 19.5557C21.3516 19.5557 20.7298 19.8133 20.2714 20.2717C19.813 20.7301 19.5555 21.3519 19.5555 22.0002C19.5555 22.6485 19.813 23.2702 20.2714 23.7287C20.7298 24.1871 21.3516 24.4446 21.9999 24.4446Z" fill="#24B7D0"/>
</svg>