<svg width="20" height="20" viewBox="0 0 20 20" fill="none" xmlns="http://www.w3.org/2000/svg">
<path fill-rule="evenodd" clip-rule="evenodd" d="M8.8324 10.9453C8.7754 10.9176 8.76596 10.8391 8.81424 10.798C9.53563 10.1845 9.99474 9.26079 9.99474 8.22763C9.99474 6.38052 8.52731 4.88315 6.71714 4.88315C4.90698 4.88315 3.43955 6.38052 3.43955 8.22763C3.43955 9.26077 3.89863 10.1845 4.61999 10.798C4.66827 10.839 4.65883 10.9176 4.60183 10.9453C4.10135 11.1887 3.64016 11.5189 3.24065 11.9266C2.70194 12.4763 2.30116 13.1404 2.06103 13.863C1.77561 14.7219 2.53439 15.4739 3.43947 15.4739H6.71706H9.99465C10.8997 15.4739 11.6585 14.7219 11.3731 13.863C11.133 13.1404 10.7322 12.4763 10.1935 11.9266C9.79399 11.519 9.33284 11.1887 8.8324 10.9453ZM14.0204 7.70266C14.9753 8.30037 15.27 9.24657 15.2288 10.0661C15.2114 10.4122 15.1578 10.8507 14.9417 11.2807C14.7166 11.7286 14.3447 12.1106 13.7879 12.389C13.4145 12.5757 12.9604 12.4244 12.7737 12.0509C12.587 11.6775 12.7383 11.2234 13.1118 11.0367C13.3974 10.8939 13.522 10.7385 13.5907 10.6019C13.6683 10.4474 13.7055 10.2541 13.7188 9.99019C13.7389 9.58974 13.6091 9.22893 13.2182 8.9843C12.8643 8.76279 12.7569 8.29632 12.9785 7.9424C13.2 7.58849 13.6664 7.48115 14.0204 7.70266ZM18 10.0281C18 8.12425 17.051 6.55935 15.8976 5.98263C15.5241 5.79591 15.07 5.94728 14.8833 6.32072C14.6966 6.69416 14.8479 7.14826 15.2214 7.33498C15.7526 7.60061 16.488 8.56271 16.488 10.0281C16.488 10.746 16.3082 11.3728 16.0522 11.8476C15.7885 12.3365 15.4765 12.6086 15.2565 12.7049C14.874 12.8722 14.6995 13.318 14.8669 13.7005C15.0342 14.083 15.4799 14.2575 15.8625 14.0901C16.4848 13.8179 17.015 13.2477 17.383 12.5652C17.7587 11.8686 18 10.995 18 10.0281Z" fill="#3B3B3B"/>
</svg>
