<svg width="20" height="20" viewBox="0 0 20 20" fill="none" xmlns="http://www.w3.org/2000/svg">
<path fill-rule="evenodd" clip-rule="evenodd" d="M6.60864 4.17472C6.60855 3.94884 6.69273 3.73104 6.84473 3.56395C6.99672 3.39685 7.2056 3.29248 7.43048 3.27124L15.5944 2.50383C15.7202 2.49196 15.8471 2.50649 15.9669 2.5465C16.0868 2.5865 16.1969 2.65111 16.2904 2.73616C16.3838 2.82122 16.4584 2.92486 16.5095 3.04043C16.5605 3.156 16.5869 3.28097 16.5868 3.40731V5.38571C16.5868 5.61073 16.5031 5.82771 16.3521 5.9945C16.2011 6.1613 15.9934 6.266 15.7695 6.28828L7.60555 7.09832C7.47948 7.11087 7.35219 7.09686 7.23186 7.05721C7.11154 7.01756 7.00085 6.95315 6.90693 6.86812C6.81302 6.78309 6.73795 6.67933 6.68658 6.56353C6.6352 6.44772 6.60865 6.32244 6.60864 6.19575V4.17472Z" fill="#3B3B3B"/>
<path d="M13.8661 16.5931C15.369 16.5931 16.5874 15.5778 16.5874 14.3253C16.5874 13.0729 15.369 12.0576 13.8661 12.0576C12.3632 12.0576 11.1448 13.0729 11.1448 14.3253C11.1448 15.5778 12.3632 16.5931 13.8661 16.5931Z" fill="#3B3B3B"/>
<path d="M5.70179 17.5C7.20473 17.5 8.4231 16.4847 8.4231 15.2322C8.4231 13.9798 7.20473 12.9644 5.70179 12.9644C4.19884 12.9644 2.98047 13.9798 2.98047 15.2322C2.98047 16.4847 4.19884 17.5 5.70179 17.5Z" fill="#3B3B3B"/>
<path fill-rule="evenodd" clip-rule="evenodd" d="M14.7726 5.25429H16.5868V14.3253H14.7726V5.25429ZM6.60864 6.16139H8.42285V15.2325H6.60864V6.16139Z" fill="#3B3B3B"/>
</svg>
