<svg xmlns="http://www.w3.org/2000/svg" width="44" height="44" viewBox="0 0 44 44" fill="none">
  <rect x="9.16663" y="9.16663" width="25.6667" height="25.6667" rx="2.93333" fill="#E9E9E9"/>
  <path fill-rule="evenodd" clip-rule="evenodd" d="M16.5 19.5555V24.4444C16.5 25.2548 16.8219 26.032 17.3949 26.605C17.968 27.178 18.7452 27.4999 19.5555 27.4999H24.4444C25.2548 27.4999 26.032 27.178 26.605 26.605C27.178 26.032 27.4999 25.2548 27.4999 24.4444V19.5555C27.4999 18.7452 27.178 17.968 26.605 17.3949C26.032 16.8219 25.2548 16.5 24.4444 16.5H19.5555C18.7452 16.5 17.968 16.8219 17.3949 17.3949C16.8219 17.968 16.5 18.7452 16.5 19.5555ZM25.7204 18.2508C25.9345 18.4454 25.9502 18.7767 25.7556 18.9907L25.7487 18.9984C25.5541 19.2125 25.2228 19.2282 25.0087 19.0336C24.7947 18.839 24.7789 18.5077 24.9735 18.2937L24.9805 18.286C25.1751 18.072 25.5063 18.0562 25.7204 18.2508ZM21.9998 24.4446C22.6481 24.4446 23.2699 24.1871 23.7283 23.7287C24.1867 23.2702 24.4443 22.6485 24.4443 22.0002C24.4443 21.3519 24.1867 20.7301 23.7283 20.2717C23.2699 19.8133 22.6481 19.5557 21.9998 19.5557C21.3515 19.5557 20.7298 19.8133 20.2713 20.2717C19.8129 20.7301 19.5554 21.3519 19.5554 22.0002C19.5554 22.6485 19.8129 23.2702 20.2713 23.7287C20.7298 24.1871 21.3515 24.4446 21.9998 24.4446Z" fill="#B5B5B5"/>
</svg>