<svg xmlns="http://www.w3.org/2000/svg" width="44" height="44" viewBox="0 0 44 44" fill="none">
  <rect x="11.7334" y="3.66663" width="20.5333" height="36.6667" rx="2.93333" fill="#E9E9E9"/>
  <path fill-rule="evenodd" clip-rule="evenodd" d="M23.0396 17.4435C23.8986 16.9749 24.9623 17.3163 25.4144 18.2062C25.8665 19.0961 25.5367 20.197 24.6776 20.6656L23.9713 21.0543C24.5798 21.0776 25.1602 21.4275 25.464 22.0257C25.9162 22.9156 25.5871 24.0165 24.7273 24.4851L20.9606 26.5566C20.1015 27.0252 19.0379 26.6838 18.5858 25.7939C18.1337 24.904 18.4635 23.8031 19.3225 23.3345L20.0289 22.9458C19.4204 22.9225 18.84 22.5726 18.5361 21.9745C18.084 21.0846 18.4138 19.9837 19.2729 19.515L23.0396 17.4435ZM21.0065 20.8024C21.0065 20.6862 21.1352 20.6161 21.2328 20.6792L23.0954 21.8828C23.1849 21.9407 23.1847 22.0717 23.0951 22.1293L21.2325 23.3273C21.1349 23.39 21.0065 23.32 21.0065 23.2039V20.8024Z" fill="#B5B5B5"/>
</svg>