<svg xmlns="http://www.w3.org/2000/svg" width="44" height="44" viewBox="0 0 44 44" fill="none">
  <rect x="40.3333" y="11.7334" width="20.5333" height="36.6667" rx="2.93333" transform="rotate(90 40.3333 11.7334)" fill="#D2F2F7"/>
  <path d="M22.0377 17.6H22.103C22.7058 17.6023 25.7604 17.6258 26.584 17.8623C26.8329 17.9344 27.0598 18.0751 27.2419 18.2702C27.424 18.4653 27.555 18.708 27.6217 18.9741C27.6958 19.2717 27.7478 19.6655 27.783 20.0719L27.7904 20.1533L27.8065 20.3569L27.8124 20.4383C27.86 21.154 27.8659 21.8242 27.8666 21.9706V22.0293C27.8659 22.1812 27.8593 22.8969 27.8065 23.6423L27.8006 23.7245L27.794 23.8059C27.7574 24.2538 27.7031 24.6985 27.6217 25.0258C27.5552 25.292 27.4243 25.5348 27.2422 25.73C27.06 25.9251 26.833 26.0657 26.584 26.1377C25.7332 26.382 22.4998 26.3992 22.0517 26.4H21.9475C21.7209 26.4 20.7837 26.3953 19.8009 26.3593L19.6763 26.3546L19.6125 26.3514L19.487 26.346L19.3616 26.3405C18.5476 26.3021 17.7724 26.2402 17.4152 26.1369C17.1663 26.065 16.9393 25.9245 16.7572 25.7295C16.5751 25.5345 16.4441 25.2919 16.3775 25.0258C16.2961 24.6993 16.2418 24.2538 16.2052 23.8059L16.1993 23.7237L16.1934 23.6423C16.1572 23.1117 16.1372 22.5801 16.1333 22.0481L16.1333 21.9518C16.1348 21.7835 16.1406 21.2017 16.1802 20.5597L16.1854 20.479L16.1876 20.4383L16.1934 20.3569L16.2096 20.1533L16.2169 20.0719C16.2521 19.6655 16.3042 19.2709 16.3782 18.9741C16.4448 18.7079 16.5756 18.4651 16.7578 18.27C16.9399 18.0748 17.1669 17.9342 17.416 17.8623C17.7731 17.7605 18.5483 17.6978 19.3624 17.6587L19.487 17.6532L19.6132 17.6485L19.6763 17.6462L19.8017 17.6407C20.4996 17.6167 21.1979 17.6034 21.8962 17.6008L22.0377 17.6ZM21.0508 20.2519C20.9531 20.1914 20.8269 20.2617 20.8269 20.3766V23.6226C20.8269 23.7375 20.953 23.8078 21.0507 23.7474L23.674 22.1251C23.7666 22.0677 23.7667 21.933 23.674 21.8756L21.0508 20.2519Z" fill="#24B7D0"/>
</svg>