<svg width="20" height="20" viewBox="0 0 20 20" fill="none" xmlns="http://www.w3.org/2000/svg">
<path fill-rule="evenodd" clip-rule="evenodd" d="M2.60059 2C2.23961 2 2 2.29599 2 2.59666V3.31165C2 3.61232 2.23961 3.90831 2.60059 3.90831H4.52689V8.40334C4.52689 8.70401 4.7665 9 5.12748 9H5.93517C6.29615 9 6.53576 8.70401 6.53576 8.40334V3.90831H8.39941C8.76039 3.90831 9 3.61232 9 3.31165V2.59666C9 2.29599 8.76039 2 8.39941 2H2.60059Z" fill="#3B3B3B"/>
<path fill-rule="evenodd" clip-rule="evenodd" d="M7 11.0833C7 9.93274 7.93274 9 9.08333 9H15.9167C17.0673 9 18 9.93274 18 11.0833V15.9167C18 17.0673 17.0673 18 15.9167 18H9.08333C7.93274 18 7 17.0673 7 15.9167V11.0833ZM13.6826 12.5388C13.3801 12.0499 12.6689 12.0499 12.3664 12.5388L11.203 14.4197L10.7591 13.702C10.4566 13.213 9.74537 13.213 9.4429 13.702L8.44351 15.3176C8.12462 15.8331 8.49542 16.4985 9.10158 16.4985H11.1004C11.1427 16.4985 11.184 16.4952 11.2239 16.489C11.2516 16.4919 11.2799 16.4935 11.3087 16.4935H14.7403C15.3464 16.4935 15.7172 15.8281 15.3983 15.3126L13.6826 12.5388ZM16.2631 12.3C16.7428 12.3 17.1316 11.8971 17.1316 11.4C17.1316 10.903 16.7428 10.5 16.2631 10.5C15.7835 10.5 15.3947 10.903 15.3947 11.4C15.3947 11.8971 15.7835 12.3 16.2631 12.3Z" fill="#3B3B3B"/>
<path d="M14.0152 7.58333L13.4767 8.10544C13.618 8.25111 13.8122 8.33333 14.0152 8.33333C14.2181 8.33333 14.4123 8.25111 14.5536 8.10544L14.0152 7.58333ZM12.7354 5.18622C12.447 4.88886 11.9722 4.88156 11.6749 5.16991C11.3775 5.45826 11.3702 5.93308 11.6585 6.23044L12.7354 5.18622ZM16.3718 6.23044C16.6601 5.93308 16.6528 5.45826 16.3554 5.16991C16.0581 4.88156 15.5833 4.88886 15.2949 5.18622L16.3718 6.23044ZM10 3.75H12.3485V2.25H10V3.75ZM13.2652 4.66667V7.58333H14.7652V4.66667H13.2652ZM14.5536 7.06122L12.7354 5.18622L11.6585 6.23044L13.4767 8.10544L14.5536 7.06122ZM14.5536 8.10544L16.3718 6.23044L15.2949 5.18622L13.4767 7.06122L14.5536 8.10544ZM12.3485 3.75C12.8547 3.75 13.2652 4.16041 13.2652 4.66667H14.7652C14.7652 3.33198 13.6832 2.25 12.3485 2.25V3.75Z" fill="#3B3B3B"/>
</svg>
