<svg xmlns="http://www.w3.org/2000/svg" width="44" height="44" viewBox="0 0 44 44" fill="none">
  <rect x="5.86658" y="9.90002" width="32.6333" height="24.2" rx="2.93333" fill="#E9E9E9"/>
  <path fill-rule="evenodd" clip-rule="evenodd" d="M20.0682 16.8917C19.8391 16.6626 19.4676 16.6626 19.2385 16.8917C19.0094 17.1208 19.0094 17.4923 19.2385 17.7214L20.5002 18.9831C20.531 19.0139 20.5092 19.0665 20.4657 19.0665H18.48C17.184 19.0665 16.1333 20.1172 16.1333 21.4132V24.9333C16.1333 26.2293 17.184 27.28 18.48 27.28H25.5201C26.8161 27.28 27.8668 26.2293 27.8668 24.9333V21.4132C27.8668 20.1172 26.8161 19.0665 25.5201 19.0665H23.5344C23.4909 19.0665 23.4691 19.0139 23.4999 18.9831L24.7616 17.7214C24.9907 17.4923 24.9907 17.1208 24.7616 16.8917C24.5325 16.6626 24.161 16.6626 23.9319 16.8917L22.0346 18.789C22.0155 18.8081 21.9846 18.8081 21.9655 18.789L20.0682 16.8917Z" fill="#B5B5B5"/>
</svg>
